<svg viewBox="0 0 400 550" xmlns="http://www.w3.org/2000/svg">
  <!-- Background -->
  <rect width="400" height="550" fill="#ffffff"/>
  
  <!-- Decorative border -->
  <rect x="10" y="10" width="380" height="530" fill="none" stroke="#333333" stroke-width="3" rx="20"/>
  
  <!-- QR Code container -->
  <g transform="translate(75, 80)">
    <rect width="250" height="250" fill="white" rx="10"/>
  </g>
  
  <!-- QR Code (centered) -->
  <g transform="translate(100, 105) scale(0.8)">
    <ns0:path xmlns:ns0="http://www.w3.org/2000/svg" d="M20,20H30V30H20zM30,20H40V30H30zM40,20H50V30H40zM50,20H60V30H50zM60,20H70V30H60zM70,20H80V30H70zM80,20H90V30H80zM100,20H110V30H100zM110,20H120V30H110zM120,20H130V30H120zM130,20H140V30H130zM150,20H160V30H150zM160,20H170V30H160zM200,20H210V30H200zM210,20H220V30H210zM220,20H230V30H220zM230,20H240V30H230zM240,20H250V30H240zM250,20H260V30H250zM260,20H270V30H260zM20,30H30V40H20zM80,30H90V40H80zM130,30H140V40H130zM140,30H150V40H140zM160,30H170V40H160zM200,30H210V40H200zM260,30H270V40H260zM20,40H30V50H20zM40,40H50V50H40zM50,40H60V50H50zM60,40H70V50H60zM80,40H90V50H80zM110,40H120V50H110zM130,40H140V50H130zM150,40H160V50H150zM160,40H170V50H160zM200,40H210V50H200zM220,40H230V50H220zM230,40H240V50H230zM240,40H250V50H240zM260,40H270V50H260zM20,50H30V60H20zM40,50H50V60H40zM50,50H60V60H50zM60,50H70V60H60zM80,50H90V60H80zM120,50H130V60H120zM130,50H140V60H130zM150,50H160V60H150zM170,50H180V60H170zM180,50H190V60H180zM200,50H210V60H200zM220,50H230V60H220zM230,50H240V60H230zM240,50H250V60H240zM260,50H270V60H260zM20,60H30V70H20zM40,60H50V70H40zM50,60H60V70H50zM60,60H70V70H60zM80,60H90V70H80zM120,60H130V70H120zM130,60H140V70H130zM140,60H150V70H140zM150,60H160V70H150zM160,60H170V70H160zM200,60H210V70H200zM220,60H230V70H220zM230,60H240V70H230zM240,60H250V70H240zM260,60H270V70H260zM20,70H30V80H20zM80,70H90V80H80zM110,70H120V80H110zM130,70H140V80H130zM150,70H160V80H150zM160,70H170V80H160zM180,70H190V80H180zM200,70H210V80H200zM260,70H270V80H260zM20,80H30V90H20zM30,80H40V90H30zM40,80H50V90H40zM50,80H60V90H50zM60,80H70V90H60zM70,80H80V90H70zM80,80H90V90H80zM100,80H110V90H100zM120,80H130V90H120zM140,80H150V90H140zM160,80H170V90H160zM180,80H190V90H180zM200,80H210V90H200zM210,80H220V90H210zM220,80H230V90H220zM230,80H240V90H230zM240,80H250V90H240zM250,80H260V90H250zM260,80H270V90H260zM100,90H110V100H100zM110,90H120V100H110zM140,90H150V100H140zM150,90H160V100H150zM170,90H180V100H170zM20,100H30V110H20zM30,100H40V110H30zM50,100H60V110H50zM60,100H70V110H60zM80,100H90V110H80zM110,100H120V110H110zM140,100H150V110H140zM160,100H170V110H160zM200,100H210V110H200zM260,100H270V110H260zM20,110H30V120H20zM40,110H50V120H40zM60,110H70V120H60zM90,110H100V120H90zM120,110H130V120H120zM150,110H160V120H150zM160,110H170V120H160zM170,110H180V120H170zM210,110H220V120H210zM220,110H230V120H220zM230,110H240V120H230zM240,110H250V120H240zM250,110H260V120H250zM20,120H30V130H20zM30,120H40V130H30zM60,120H70V130H60zM80,120H90V130H80zM90,120H100V130H90zM110,120H120V130H110zM140,120H150V130H140zM170,120H180V130H170zM180,120H190V130H180zM190,120H200V130H190zM210,120H220V130H210zM230,120H240V130H230zM260,120H270V130H260zM20,130H30V140H20zM50,130H60V140H50zM70,130H80V140H70zM90,130H100V140H90zM160,130H170V140H160zM180,130H190V140H180zM200,130H210V140H200zM230,130H240V140H230zM240,130H250V140H240zM250,130H260V140H250zM260,130H270V140H260zM20,140H30V150H20zM30,140H40V150H30zM50,140H60V150H50zM60,140H70V150H60zM70,140H80V150H70zM80,140H90V150H80zM90,140H100V150H90zM110,140H120V150H110zM120,140H130V150H120zM150,140H160V150H150zM160,140H170V150H160zM180,140H190V150H180zM200,140H210V150H200zM260,140H270V150H260zM20,150H30V160H20zM30,150H40V160H30zM40,150H50V160H40zM50,150H60V160H50zM60,150H70V160H60zM70,150H80V160H70zM90,150H100V160H90zM110,150H120V160H110zM120,150H130V160H120zM140,150H150V160H140zM160,150H170V160H160zM170,150H180V160H170zM180,150H190V160H180zM220,150H230V160H220zM250,150H260V160H250zM20,160H30V170H20zM30,160H40V170H30zM80,160H90V170H80zM90,160H100V170H90zM100,160H110V170H100zM120,160H130V170H120zM160,160H170V170H160zM170,160H180V170H170zM190,160H200V170H190zM220,160H230V170H220zM230,160H240V170H230zM240,160H250V170H240zM250,160H260V170H250zM260,160H270V170H260zM20,170H30V180H20zM40,170H50V180H40zM50,170H60V180H50zM100,170H110V180H100zM140,170H150V180H140zM150,170H160V180H150zM160,170H170V180H160zM210,170H220V180H210zM230,170H240V180H230zM240,170H250V180H240zM260,170H270V180H260zM20,180H30V190H20zM70,180H80V190H70zM80,180H90V190H80zM90,180H100V190H90zM100,180H110V190H100zM130,180H140V190H130zM140,180H150V190H140zM170,180H180V190H170zM180,180H190V190H180zM190,180H200V190H190zM200,180H210V190H200zM210,180H220V190H210zM220,180H230V190H220zM240,180H250V190H240zM250,180H260V190H250zM100,190H110V200H100zM110,190H120V200H110zM120,190H130V200H120zM130,190H140V200H130zM170,190H180V200H170zM180,190H190V200H180zM220,190H230V200H220zM240,190H250V200H240zM250,190H260V200H250zM20,200H30V210H20zM30,200H40V210H30zM40,200H50V210H40zM50,200H60V210H50zM60,200H70V210H60zM70,200H80V210H70zM80,200H90V210H80zM110,200H120V210H110zM120,200H130V210H120zM140,200H150V210H140zM150,200H160V210H150zM160,200H170V210H160zM180,200H190V210H180zM200,200H210V210H200zM220,200H230V210H220zM260,200H270V210H260zM20,210H30V220H20zM80,210H90V220H80zM110,210H120V220H110zM130,210H140V220H130zM150,210H160V220H150zM170,210H180V220H170zM180,210H190V220H180zM220,210H230V220H220zM260,210H270V220H260zM20,220H30V230H20zM40,220H50V230H40zM50,220H60V230H50zM60,220H70V230H60zM80,220H90V230H80zM100,220H110V230H100zM130,220H140V230H130zM150,220H160V230H150zM170,220H180V230H170zM180,220H190V230H180zM190,220H200V230H190zM200,220H210V230H200zM210,220H220V230H210zM220,220H230V230H220zM250,220H260V230H250zM260,220H270V230H260zM20,230H30V240H20zM40,230H50V240H40zM50,230H60V240H50zM60,230H70V240H60zM80,230H90V240H80zM100,230H110V240H100zM110,230H120V240H110zM140,230H150V240H140zM150,230H160V240H150zM170,230H180V240H170zM180,230H190V240H180zM190,230H200V240H190zM200,230H210V240H200zM250,230H260V240H250zM260,230H270V240H260zM20,240H30V250H20zM40,240H50V250H40zM50,240H60V250H50zM60,240H70V250H60zM80,240H90V250H80zM130,240H140V250H130zM150,240H160V250H150zM170,240H180V250H170zM190,240H200V250H190zM220,240H230V250H220zM230,240H240V250H230zM240,240H250V250H240zM250,240H260V250H250zM260,240H270V250H260zM20,250H30V260H20zM80,250H90V260H80zM100,250H110V260H100zM110,250H120V260H110zM130,250H140V260H130zM140,250H150V260H140zM150,250H160V260H150zM170,250H180V260H170zM200,250H210V260H200zM210,250H220V260H210zM220,250H230V260H220zM240,250H250V260H240zM250,250H260V260H250zM260,250H270V260H260zM20,260H30V270H20zM30,260H40V270H30zM40,260H50V270H40zM50,260H60V270H50zM60,260H70V270H60zM70,260H80V270H70zM80,260H90V270H80zM100,260H110V270H100zM120,260H130V270H120zM130,260H140V270H130zM140,260H150V270H140zM150,260H160V270H150zM180,260H190V270H180zM230,260H240V270H230zM260,260H270V270H260z" id="qr-path" fill="#000000" fill-opacity="1" fill-rule="nonzero" stroke="none" />
  </g>
  
  <!-- Microphone with stand -->
  <g transform="translate(310, 120)">
    <ellipse cx="0" cy="50" rx="30" ry="8" fill="#666666"/>
    <rect x="-3" y="20" width="6" height="30" fill="#666666"/>
    <rect x="-2" y="-80" width="4" height="100" fill="#888888"/>
    <ellipse cx="0" cy="-100" rx="18" ry="25" fill="#333333"/>
    <ellipse cx="0" cy="-98" rx="16" ry="23" fill="#555555"/>
    
    <line x1="-12" y1="-110" x2="-12" y2="-88" stroke="#888888" stroke-width="1"/>
    <line x1="-8" y1="-112" x2="-8" y2="-86" stroke="#888888" stroke-width="1"/>
    <line x1="-4" y1="-113" x2="-4" y2="-85" stroke="#888888" stroke-width="1"/>
    <line x1="0" y1="-114" x2="0" y2="-84" stroke="#888888" stroke-width="1"/>
    <line x1="4" y1="-113" x2="4" y2="-85" stroke="#888888" stroke-width="1"/>
    <line x1="8" y1="-112" x2="8" y2="-86" stroke="#888888" stroke-width="1"/>
    <line x1="12" y1="-110" x2="12" y2="-88" stroke="#888888" stroke-width="1"/>
    
    <path d="M 0,-75 Q -15,-60 -20,-40 Q -22,-20 -15,0" fill="none" stroke="#333333" stroke-width="3"/>
    
    <path d="M -35,-100 Q -40,-100 -45,-100" fill="none" stroke="#999999" stroke-width="2" stroke-linecap="round"/>
    <path d="M -40,-110 Q -50,-110 -60,-110" fill="none" stroke="#999999" stroke-width="2" stroke-linecap="round"/>
    <path d="M -40,-90 Q -50,-90 -60,-90" fill="none" stroke="#999999" stroke-width="2" stroke-linecap="round"/>
    <path d="M 35,-100 Q 40,-100 45,-100" fill="none" stroke="#999999" stroke-width="2" stroke-linecap="round"/>
    <path d="M 40,-110 Q 50,-110 60,-110" fill="none" stroke="#999999" stroke-width="2" stroke-linecap="round"/>
    <path d="M 40,-90 Q 50,-90 60,-90" fill="none" stroke="#999999" stroke-width="2" stroke-linecap="round"/>
  </g>
  
  <!-- Text -->
  <text x="200" y="380" font-family="Arial, sans-serif" font-size="32" font-weight="bold" fill="#333333" text-anchor="middle">
    and Go to Play!
  </text>
  
  <text x="200" y="420" font-family="Arial, sans-serif" font-size="20" fill="#666666" text-anchor="middle">
    singquiz.com
  </text>
  
  <!-- Musical notes -->
  <g fill="#888888" opacity="0.6">
    <text x="50" y="360" font-size="30">♪</text>
    <text x="340" y="380" font-size="25">♫</text>
    <text x="30" y="460" font-size="28">♪</text>
    <text x="360" y="470" font-size="26">♫</text>
  </g>
</svg>